<?xml version="1.0" standalone="no"?>
<!DOCTYPE svg PUBLIC "-//W3C//DTD SVG 20010904//EN"
 "http://www.w3.org/TR/2001/REC-SVG-20010904/DTD/svg10.dtd">
<svg version="1.0" xmlns="http://www.w3.org/2000/svg"
 width="210.000000pt" height="210.000000pt" viewBox="0 0 210.000000 210.000000"
 preserveAspectRatio="xMidYMid meet">
<metadata>
Created by potrace 1.14, written by Peter Selinger 2001-2017
</metadata>
<g transform="translate(0.000000,210.000000) scale(0.100000,-0.100000)"
fill="#000000" stroke="none">
<path d="M738 2015 c-2 -2 -19 -6 -38 -9 -69 -12 -125 -34 -121 -47 2 -8 4
-30 4 -50 2 -76 -72 -132 -145 -110 -20 7 -44 21 -52 33 -13 18 -18 19 -33 8
-40 -30 -108 -109 -148 -170 -51 -78 -63 -110 -41 -110 26 0 65 -45 74 -86 16
-73 -40 -139 -115 -136 -27 1 -34 -3 -39 -24 -11 -42 5 -199 27 -269 17 -55
23 -65 37 -59 42 19 97 16 126 -7 61 -48 65 -119 9 -176 l-35 -34 70 -67 c58
-56 218 -163 225 -151 1 2 10 20 20 40 24 47 67 72 112 65 73 -12 113 -64 102
-131 -5 -33 -4 -35 21 -36 134 -3 124 0 140 -47 10 -32 17 -40 26 -33 21 17
59 19 87 5 46 -23 53 -76 15 -121 l-25 -29 36 -33 c39 -36 121 -89 166 -109
26 -11 29 -10 38 16 30 85 152 67 152 -22 l0 -36 56 1 c31 0 90 10 131 22 80
24 80 24 67 91 -5 22 0 34 21 56 25 25 34 27 84 21 4 -1 17 -11 29 -23 l21
-23 43 49 c52 59 114 178 96 184 -26 9 -61 48 -65 75 -3 19 3 36 20 57 14 16
28 29 32 29 4 -1 19 -1 33 0 l25 1 -8 74 c-4 41 -17 100 -29 131 -20 55 -21
56 -54 49 -45 -8 -73 2 -89 34 -16 32 -12 69 12 95 16 18 15 21 -28 58 -52 45
-180 115 -180 99 0 -6 -12 -22 -26 -35 -35 -32 -78 -32 -109 -1 -40 40 -15 68
61 68 25 0 34 5 35 17 1 9 2 29 3 44 4 37 -18 179 -36 237 l-14 45 -50 -3
c-36 -2 -58 3 -82 18 -58 36 -70 117 -25 170 l26 32 -44 44 c-50 50 -133 111
-196 143 l-42 21 -15 -29 c-15 -28 -69 -61 -100 -61 -57 0 -116 64 -116 125
l0 26 -90 -2 c-49 -1 -91 -3 -92 -4z m823 -1163 c48 -19 108 -89 124 -145 44
-155 -64 -299 -225 -300 -202 -2 -307 248 -166 395 66 69 172 89 267 50z"/>
</g>
</svg>
